<svg width="45" height="49" viewBox="0 0 45 49" fill="none" xmlns="http://www.w3.org/2000/svg">
<g clip-path="url(#clip0_47_42)">
<path d="M38.3607 28.5067C36.8885 28.9373 35.5029 29.7854 34.3878 30.8342C33.7632 31.4217 33.203 32.1053 32.8424 32.8896C32.6925 33.2152 32.5791 33.5582 32.517 33.9115C32.4714 34.173 32.5826 34.8485 32.404 34.9873C32.5588 33.153 31.7805 30.9769 30.9593 29.3717C30.3148 28.113 29.0663 25.6724 27.3255 26.3206C28.7885 24.4671 26.868 22.8723 25.4616 21.9234C23.7599 20.7754 22.4057 18.9803 20.3345 18.4697C21.1388 17.8342 21.9933 17.2636 22.8808 16.7527C22.6413 18.9446 24.6216 20.4101 26.4511 21.0553C28.6679 21.8369 31.2574 21.9411 33.5279 21.3298C35.2062 20.8777 37.3303 19.6236 36.5635 17.552C36.0669 16.2094 34.5119 15.6543 33.2654 15.2725C31.7778 14.8166 30.3884 14.459 29.0032 13.7327C29.7201 13.3209 30.4003 12.8465 31.0153 12.2929C31.4621 11.8903 31.5939 12.3275 32.1312 12.4428C32.5117 12.5251 32.9026 12.4655 33.2704 12.3513C34.6526 11.9242 35.6032 10.6616 36.2221 9.41472C37.2867 7.2679 37.63 4.68615 36.987 2.35626C36.7234 1.40009 36.198 0.350483 35.1756 0.0525542C33.7731 -0.355747 32.3036 1.71769 31.5955 2.72456C30.6379 4.08438 29.7255 5.84528 29.5186 7.52075C29.4151 8.36004 29.6235 9.2535 29.924 10.0325C30.1646 10.6607 30.2723 10.6619 29.7324 11.1206C29.3929 11.409 29.0319 11.6719 28.6583 11.9141C29.7136 9.55394 28.9963 7.38508 27.585 5.37123C26.601 3.9679 25.0134 1.9072 23.0388 2.56349C20.786 3.31321 21.7969 5.70577 21.6429 7.45702C21.5352 8.68998 21.0413 9.95453 21.3582 11.1945C21.6651 12.3941 22.4905 13.6708 23.4516 14.4421C22.1223 15.0241 20.8466 15.6651 19.6579 16.5029C19.2947 13.9503 18.646 11.5386 16.9951 9.48977C16.2613 8.5805 15.6999 7.8958 14.4737 8.47285C13.6387 8.86578 13.1191 9.72274 12.77 10.5436C12.0416 12.2549 11.7132 14.2691 11.9822 16.1142C12.2612 18.0373 13.1314 20.4475 15.0899 21.2241C14.3297 22.4202 13.7568 23.7309 13.179 25.0227C12.3325 23.4883 10.5607 22.6456 9.33594 21.4406C8.06754 20.1934 7.08049 18.4201 5.08136 18.4129C3.10333 18.4063 2.95697 20.4747 3.13325 22.0207C3.53139 25.4959 6.29306 31.7957 10.7465 30.7792C9.55705 33.6497 8.08677 35.908 5.54154 37.7461C4.43255 38.5466 3.2493 39.2356 2.05487 39.8961C1.22908 40.3525 -0.353521 40.8723 0.0710443 42.1349C0.484122 43.3667 2.34984 41.8688 2.93156 41.5436C4.43402 40.7046 5.91166 39.8062 7.24284 38.7074C7.4011 38.5767 7.68466 38.2318 7.8889 38.2291C8.42958 38.2218 8.96953 38.2126 9.50946 38.2053C10.4536 38.1922 11.3974 38.1864 12.3412 38.2168C14.2063 38.2752 15.9559 38.5928 17.7473 39.108C16.8905 40.827 17.1756 43.557 18.1033 45.2034C19.0639 46.9058 20.9477 48.0369 22.7468 48.672C24.3067 49.2226 26.8566 49.3029 27.1573 47.1099C27.326 45.8808 26.4569 44.8266 25.8423 43.8623C25.1008 42.7001 24.654 41.3707 23.8845 40.2268C24.8888 40.2002 25.8875 40.0522 26.8608 39.8035C26.6746 41.7943 28.4154 44.2053 30.0992 45.1006C31.8477 46.0303 34.1714 46.1733 36.103 45.8696C37.6998 45.6181 40.3059 44.1052 38.6842 42.1948C37.858 41.2214 36.5318 40.6507 35.5596 39.825C34.474 38.9019 33.3942 37.888 32.0005 37.4686C32.345 37.2387 32.6822 36.998 33.0114 36.745C33.4774 36.3883 33.359 36.5593 33.7755 36.8369C34.348 37.2183 35.0155 37.4482 35.6906 37.5605C37.0207 37.7827 38.1779 37.4905 39.3371 36.8358C40.6369 36.1011 41.8175 35.141 42.8127 34.0261C43.5752 33.1729 45.2253 31.3194 44.9743 30.0526C44.429 27.2768 40.2851 27.9442 38.3608 28.5067L38.3607 28.5067ZM34.6445 18.494C33.2647 19.5501 30.8336 19.4256 29.1932 19.281C29.2703 18.8681 29.0618 17.4937 28.3544 18.226C28.2126 18.3725 28.1138 18.604 28.005 18.7781C27.7363 19.2091 27.4842 19.015 26.9987 18.857C27.4328 18.509 27.8003 16.8546 26.7837 17.311C26.0993 17.6182 25.9238 18.599 25.2141 17.822C24.1876 16.6982 25.1839 15.2629 26.581 15.3929C27.8015 15.5051 28.8928 16.2887 29.9562 16.8307C31.1122 17.4205 33.498 17.2071 34.6445 18.4939L34.6445 18.494ZM35.4914 4.82494C35.5216 5.95416 35.4163 6.92373 34.9074 7.95069C34.2322 7.47164 33.2451 7.6854 33.7861 8.61428C33.8428 8.71078 34.1774 9.04181 34.1762 9.13254C33.7934 9.62542 33.1221 10.312 32.4338 9.97798C31.0241 9.29401 31.2582 7.07674 31.7307 5.91495C32.3162 4.47629 33.3953 3.19944 34.628 2.27169C35.6921 2.51775 35.4744 4.176 35.4913 4.8249L35.4914 4.82494ZM23.9757 4.86377C24.1355 3.9995 24.6793 4.66923 25.0403 5.08984C25.7499 5.91376 26.2607 6.90911 26.6811 7.90762C27.0862 8.86763 27.1402 9.81418 26.7405 10.7892C26.5099 11.3501 25.6512 13.1671 24.9338 13.1382C24.3448 13.114 24.0536 12.2002 23.8459 11.7688C23.3477 10.7327 23.6508 9.79224 23.8252 8.71459C23.921 8.1229 23.7409 6.12979 23.9758 4.86377L23.9757 4.86377ZM26.7642 34.4755C26.2868 33.3083 26.4412 31.8281 26.6619 30.6189C26.7711 30.0226 26.9267 29.3428 27.3325 28.8711C28.005 28.0872 28.5625 29.2702 28.9392 29.8284C30.1501 31.6273 31.6679 34.1452 30.1429 35.9349C27.7172 38.7831 27.3329 35.8646 26.7643 34.4755L26.7642 34.4755ZM24.0428 23.644C24.5448 23.9262 25.2184 24.2311 25.5607 24.7156C25.9676 25.2903 24.1731 25.3461 23.9115 25.3588C22.8374 25.4118 21.7388 25.2803 20.7026 24.9935C19.8197 24.7482 19.1154 24.2604 18.6295 23.4745C18.3575 23.0358 17.4704 21.4606 17.8735 20.9881C18.2513 20.5459 19.1787 20.7851 19.666 20.8443C20.7382 20.9762 21.4697 21.4241 22.2135 22.2007C22.6323 22.639 23.3561 23.2575 24.0428 23.644V23.644ZM17.8194 16.5587C17.757 17.3465 17.3151 18.7847 16.4235 18.9927C15.5606 19.1938 14.8612 18.0423 14.5126 17.4329C15.0521 17.499 16.1852 17.1072 15.9622 16.3321C15.7292 15.5213 14.4328 16.1429 14.0378 16.4678C13.9554 16.2698 13.868 16.0687 13.8309 15.8565C14.9356 15.6697 14.895 13.9515 13.7577 14.4732C13.7642 13.6812 13.7224 10.5227 14.9996 10.5074C15.9441 11.4282 17.9858 14.4905 17.8195 16.5585L17.8194 16.5587ZM16.63 30.9C16.5158 30.4675 15.7471 29.9984 15.5544 30.6378C15.439 31.0396 15.2735 31.4479 15.2233 31.8654C14.6079 31.679 12.5099 31.0377 13.1912 30.0142C13.7499 29.1753 14.96 28.8115 15.9061 28.7613C18.0344 28.6467 20.2519 29.687 21.8744 31.0062C21.3647 31.694 19.9611 31.8678 19.194 32.0312C18.2069 32.2434 17.4025 32.3645 16.402 32.1631C16.6247 31.7744 16.8009 31.3453 16.63 30.9001L16.63 30.9ZM6.30821 25.1115C5.90164 24.4348 5.73189 23.5152 5.49776 22.7701C5.44066 22.5871 4.96052 20.5479 4.8264 20.5314C6.40517 20.7313 7.29953 22.7036 8.27628 23.744C9.23657 24.7659 10.7187 25.2746 11.4829 26.4914C12.375 27.9127 10.8253 29.268 9.41941 28.6291C7.99317 27.9805 7.08538 26.4015 6.30825 25.1116C6.05726 24.6952 7.12178 26.4623 6.30825 25.1116L6.30821 25.1115ZM11.8833 32.6563C14.3357 35.4882 20.079 35.0846 22.7024 32.7059C26.9797 28.8289 17.2519 25.7236 14.4397 26.6282C14.9873 25.3391 15.6126 24.0835 16.3626 22.9C16.9519 24.6567 17.9954 26.213 19.7274 26.9858C21.6331 27.8358 24.3698 27.9962 26.2854 27.1069C24.0545 29.8535 24.2357 35.002 26.2207 37.7947C23.3648 38.3288 20.8349 37.6663 18.0633 37.0635C15.3266 36.4687 12.5407 36.185 9.74189 36.1588C10.5853 35.0796 11.2835 33.8886 11.8839 32.6563L11.8833 32.6563ZM25.2863 46.5055C25.4576 46.8058 23.8329 46.5516 23.6681 46.5178C22.6369 46.3044 21.536 45.7143 20.6807 45.111C21.0237 44.9915 21.4582 44.5043 21.3456 44.1129C21.1302 43.3643 20.3616 43.8319 19.9289 43.9833C19.6159 44.0929 19.2331 43.6719 19.4676 43.5527C19.7036 43.4332 19.8657 43.2986 19.9933 43.0587C20.3987 42.2951 19.6373 42.096 19.0599 42.2778C19.0055 41.6273 18.8422 39.9118 19.9014 40.0199C20.6639 40.0983 21.6836 40.765 22.2044 41.3059C22.8301 41.9557 23.0202 42.8538 23.4421 43.6269C23.9874 44.6304 24.7208 45.5143 25.2864 46.5054C25.5251 46.9214 24.5311 45.1828 25.2864 46.5054L25.2863 46.5055ZM32.9475 40.4916C33.8733 41.4593 35.0838 42.0498 36.1656 42.8111C36.6239 43.1336 36.3453 43.8003 35.8663 44.0595C35.4421 44.2882 34.7474 44.1521 34.2825 44.1521C34.66 43.3728 33.5403 42.2444 33.1624 43.2675C33.0157 43.6615 33.1 44.1087 32.6168 44.0153C31.824 43.8638 31.0396 43.565 30.4767 42.9641C29.9 42.3478 28.3917 39.655 29.5559 39.1948C30.5288 38.8091 32.2543 39.7657 32.9475 40.4916C33.9821 41.5735 32.6053 40.1325 32.9475 40.4916V40.4916ZM40.4002 33.8811C40.1726 33.5035 39.0434 32.562 39.0219 33.6143C39.0177 33.8599 39.1621 34.0998 39.1602 34.3447C39.1598 34.4389 39.2936 34.5923 39.2637 34.6765C39.1966 34.8572 38.6379 35.0441 38.4494 35.1148C38.5962 34.6369 38.2325 33.5339 37.5868 33.748C37.0787 33.9095 37.1029 34.8726 37.0879 35.319C37.0009 35.7107 34.778 35.0314 34.5899 34.4474C34.3488 33.6973 35.1309 32.876 35.6061 32.407C36.9422 31.0852 38.4279 30.5082 40.2645 30.2686C41.0347 30.1671 42.2805 29.9841 42.9189 30.5708C43.3738 30.9875 40.8018 33.5362 40.4002 33.8811H40.4002Z" fill="#74D148"/>
</g>
<defs>
<clipPath id="clip0_47_42">
<rect width="45" height="49" fill="white"/>
</clipPath>
</defs>
</svg>
